<svg xmlns="http://www.w3.org/2000/svg" width="44" height="35"><path fill-rule="evenodd" fill="#fff" d="M40.437 34H4.563A2.561 2.561 0 012 31.438V4.559A2.562 2.562 0 014.563 2h35.874A2.562 2.562 0 0143 4.559v26.88a2.561 2.561 0 01-2.563 2.56zm0-28.161a1.28 1.28 0 00-1.28-1.28H5.843a1.28 1.28 0 00-1.282 1.28v3.84c0 .707.574 1.28 1.282 1.28h33.312a1.28 1.28 0 001.281-1.28V5.84zm0 7.68a1.28 1.28 0 00-1.28-1.28H5.843a1.28 1.28 0 00-1.282 1.28v16.64c0 .707.574 1.28 1.282 1.28h33.312a1.28 1.28 0 001.281-1.28v-16.64zm-3.203-3.84a1.92 1.92 0 111.922-1.92 1.92 1.92 0 01-1.922 1.92zm0-2.6a.68.68 0 100 1.361.68.68 0 000-1.361zm-5.125 2.6a1.92 1.92 0 11-.002-3.841 1.92 1.92 0 01.002 3.841zm0-2.6a.68.68 0 100 1.361.68.68 0 000-1.361zm-4.484 2.6h-20.5A1.28 1.28 0 015.844 8.4V7.12c0-.706.573-1.28 1.28-1.28h20.5c.709 0 1.282.574 1.282 1.28V8.4a1.28 1.28 0 01-1.281 1.28zm-.042-2.137a.436.436 0 00-.436-.435H7.602a.436.436 0 00-.435.435v.435c0 .24.195.434.435.434h19.545c.24 0 .436-.194.436-.434v-.435z"/></svg>