<svg xmlns="http://www.w3.org/2000/svg" width="48" height="43"><path fill-rule="evenodd" fill="#2eb0ec" d="M44.187 26.827s-12.987.088-20.86.901c-3.688.38-7.156 1.387-8.268 1.731l.44 2.885h27.282c.777 0 1.406.618 1.406 1.38 0 .761-.63 1.379-1.406 1.379H15.535c-1.553 0-2.812-1.236-2.812-2.759l-.352-2.07-.416-2.721a2.676 2.676 0 01-.111-.726L9.03 7.517l-.469-2.76H3.406C2.63 4.758 2 4.14 2 3.38 2 2.618 2.63 2 3.406 2h5.625c.125 0 .237.04.352.07.115-.03.227-.07.351-.07.777 0 1.407.618 1.407 1.38l.242 1.425a2.84 2.84 0 01.46-.046h32.344C45.741 4.758 47 5.993 47 7.516v16.552c0 1.524-1.26 2.759-2.813 2.759zm0-17.931c0-.762-.63-1.38-1.406-1.38h-29.18c-.776 0-1.406.618-1.406 1.38l2.344 16.092c0 .762.63 1.379 1.406 1.379 0 0 2.277-.96 6.452-1.44 7.01-.81 20.384-.859 20.384-.859.777 0 1.406-.618 1.406-1.38V8.896zM18.875 36.482c1.553 0 2.812 1.235 2.812 2.759 0 1.523-1.259 2.759-2.812 2.759s-2.813-1.236-2.813-2.759c0-1.524 1.26-2.76 2.813-2.76zm0 4.138c.777 0 1.406-.618 1.406-1.379 0-.762-.63-1.38-1.406-1.38-.777 0-1.406.618-1.406 1.38 0 .761.63 1.379 1.406 1.379zm19.687-4.138c1.554 0 2.813 1.235 2.813 2.759 0 1.523-1.26 2.759-2.813 2.759-1.553 0-2.812-1.236-2.812-2.759 0-1.524 1.26-2.76 2.812-2.76zm0 4.138c.777 0 1.407-.618 1.407-1.379 0-.762-.63-1.38-1.407-1.38-.776 0-1.406.618-1.406 1.38 0 .761.63 1.379 1.406 1.379z"/></svg>