<svg xmlns="http://www.w3.org/2000/svg" width="49" height="36"><path fill-rule="evenodd" fill="#fff" d="M43.687 35c-2.48 0-5.57-4.325-5.57-4.661 0-.142-.817-1.385-1.788-3.124-1.063 1.094-2.525 1.772-4.142 1.772-2.2 0-4.095-1.268-5.105-3.123h-4.167c-1.01 1.853-2.904 3.12-5.103 3.12-1.615 0-3.077-.678-4.14-1.772-.971 1.741-1.79 2.985-1.79 3.127 0 .336-3.089 4.66-5.57 4.66C3.832 35 2 32.913 2 30.34 2 27.914 4.263 8.89 6.6 6.69c.461-1.006 1.442-1.706 2.587-1.706h.01c-.002-.033-.01-.062-.01-.094 0-1.596 1.247-2.89 2.786-2.89h5.93c1.537 0 2.784 1.294 2.784 2.89 0 .032-.008.061-.009.094h8.643c0-.033-.009-.062-.009-.094 0-1.596 1.247-2.89 2.786-2.89h5.93c1.537 0 2.784 1.294 2.784 2.89 0 .032-.008.061-.009.094h.01c1.145 0 2.125.7 2.588 1.705C45.737 8.888 48 27.913 48 30.338 48 32.914 46.168 35 43.687 35zm-11.5-9.136c1.588 0 2.875-1.336 2.875-2.983 0-1.648-1.287-2.984-2.875-2.984-1.587 0-2.875 1.336-2.875 2.984 0 1.647 1.288 2.983 2.875 2.983zm-14.375 0c1.588 0 2.875-1.336 2.875-2.983 0-1.648-1.287-2.984-2.875-2.984-1.587 0-2.875 1.336-2.875 2.984 0 1.647 1.288 2.983 2.875 2.983zm27.363 1.918C45.092 26.11 42.07 8.446 40.77 8.516c-.056.003-.133.056-.219.13-.258-.4-.676-.68-1.175-.68h-1.438V6.473c0-.824-.643-1.491-1.437-1.491h-2.875c-.794 0-1.438.667-1.438 1.49v1.492H17.812v-1.49c0-.824-.643-1.491-1.437-1.491H13.5c-.794 0-1.438.667-1.438 1.49v1.492h-1.437c-.5 0-.918.28-1.175.681-.086-.074-.163-.127-.22-.13-1.3-.07-4.322 17.594-4.405 19.266-.084 1.672.184 3.83 1.485 3.9 1.301.07 3.601-3.397 3.612-3.616.01-.193 2.63-3.668 3.549-6.677h.012c.606-1.89 2.304-3.263 4.33-3.263 2.53 0 4.581 2.129 4.581 4.755h5.211c0-2.626 2.052-4.755 4.582-4.755 2.026 0 3.724 1.373 4.33 3.263h.012c.92 3.01 3.54 6.484 3.549 6.677.01.219 2.31 3.685 3.611 3.616 1.301-.07 1.57-2.228 1.486-3.9zM37.22 13.978c-1.216 0-2.202-1.022-2.202-2.284 0-1.261.986-2.284 2.202-2.284 1.215 0 2.2 1.023 2.2 2.284 0 1.262-.985 2.284-2.2 2.284zm0-3.053a.755.755 0 00-.742.769c0 .425.332.77.742.77.409 0 .74-.345.74-.77a.755.755 0 00-.74-.769zm-5.75 6.036c-1.216 0-2.202-1.023-2.202-2.284s.986-2.283 2.202-2.283c1.215 0 2.2 1.022 2.2 2.283s-.985 2.284-2.2 2.284zm0-3.052a.755.755 0 00-.742.768c0 .425.332.77.742.77.409 0 .74-.345.74-.77a.755.755 0 00-.74-.768zm-15.094 1.514c0 .824-.644 1.491-1.438 1.491H13.5c-.794 0-1.438-.667-1.438-1.491-.794 0-1.437-.668-1.437-1.492V12.44c0-.824.643-1.491 1.437-1.491 0-.824.644-1.492 1.438-1.492h1.437c.794 0 1.438.668 1.438 1.492.794 0 1.437.667 1.437 1.49v1.492c0 .824-.643 1.492-1.437 1.492zm-.719-2.983h-.719v-.746a.733.733 0 00-.718-.745.733.733 0 00-.72.745v.746h-.718a.732.732 0 00-.719.746c0 .411.322.745.72.745h.718v.746c0 .412.322.746.719.746a.732.732 0 00.718-.746v-.746h.72a.733.733 0 00.718-.745.732.732 0 00-.719-.746z"/></svg>