<svg xmlns="http://www.w3.org/2000/svg" width="44" height="46"><path fill-rule="evenodd" fill="#fff" d="M40.267 27.544v14.77c0 1.483-1.224 2.686-2.734 2.686H7.466c-1.509 0-2.733-1.203-2.733-2.687V27.544C3.223 27.544 2 26.342 2 24.86v-6.714c0-1.483 1.224-2.686 2.733-2.686h12.88a14.024 14.024 0 01-6.88-2.354c.036-.011.068-.03.103-.041C9.11 12.102 7.772 10.48 7.29 8.43a7.007 7.007 0 01-.169-1.36 4.315 4.315 0 01-.001-.766l.002-.026a4.33 4.33 0 01.085-.572c.079-.493.19-.977.367-1.438.282-.294.596-.557.927-.803a4.503 4.503 0 012.09-1.125c.097-.022.194-.02.291-.036.127-.036.245-.085.375-.114 2.656-.604 5.286.313 7.018 2.144.002-.012.007-.024.009-.038a13.46 13.46 0 013.796 6.632c.04.169.046.336.079.503h.682c.033-.167.039-.334.079-.503a13.46 13.46 0 013.796-6.632c.002.014.007.026.009.038 1.731-1.83 4.362-2.748 7.018-2.144.13.029.248.078.374.114.098.016.194.014.292.036.82.186 1.522.593 2.09 1.125.33.246.645.509.927.803.177.46.288.945.367 1.438a4.31 4.31 0 01.087.598 4.31 4.31 0 01-.002.767c-.016.45-.06.904-.168 1.36-.482 2.049-1.82 3.67-3.546 4.633.035.012.067.03.102.041a14.025 14.025 0 01-6.879 2.354h12.88c1.509 0 2.733 1.203 2.733 2.686v6.714c0 1.483-1.224 2.685-2.733 2.685zm-15.034 14.77h10.934c.754 0 1.366-.601 1.366-1.343V27.544c0-.741-.612-1.343-1.366-1.343H25.233v16.112zm-6.495-32.136c-.48-1.439-1.36-2.718-2.478-3.748 0 .007-.002.013-.003.02-1.071-1.067-2.605-1.687-4.078-1.49-.072.01-.136.031-.206.043-.054.005-.109 0-.163.006a2.108 2.108 0 00-1.127.505 3.15 3.15 0 00-.484.386c-.077.24-.116.496-.136.757-.015.099-.02.2-.02.303v.015c0 .134.013.272.039.411.032.243.08.49.163.74.375 1.125 1.212 2.062 2.237 2.662-.02.004-.037.013-.056.017 1.849 1.266 4.11 1.919 6.291 1.627.138-.018.269-.049.403-.075a7.282 7.282 0 00-.382-2.179zm1.029 5.259c-.118.01-.235.016-.352.022h.352v-.022zm0 2.708H6.1c-.755 0-1.367.601-1.367 1.343v4.028c0 .741.612 1.343 1.367 1.343h13.667v-6.714zm0 8.056H8.833c-.755 0-1.367.602-1.367 1.343v13.427c0 .742.612 1.342 1.367 1.342h10.934V26.201zm1.366-10.742v28.197h2.734V15.46h-2.734zm11.441-4.654c-.02-.004-.037-.013-.056-.017 1.025-.6 1.862-1.537 2.237-2.662a3.97 3.97 0 00.163-.74 2.25 2.25 0 00.019-.729 3.28 3.28 0 00-.136-.757 3.15 3.15 0 00-.484-.386 2.108 2.108 0 00-1.127-.505c-.054-.007-.109-.001-.163-.006-.07-.012-.134-.034-.206-.043-1.473-.197-3.007.423-4.078 1.49 0-.007-.003-.013-.003-.02-1.118 1.03-1.999 2.31-2.478 3.748a7.282 7.282 0 00-.382 2.179c.134.026.264.057.403.075 2.18.292 4.442-.361 6.291-1.627zm-7.34 4.632v.022h.35a10.27 10.27 0 01-.35-.022zm15.033 4.05c0-.74-.612-1.342-1.367-1.342H25.233v6.714H38.9c.755 0 1.367-.602 1.367-1.343v-4.028z"/></svg>