<svg xmlns="http://www.w3.org/2000/svg" width="33" height="47"><path fill-rule="evenodd" fill="#2eb0ec" d="M29.257 25.814a13.757 13.757 0 00-3.972 7.815h-.127c0 .561-.503 1.081-1.36 1.513v6.73c0 1.516-1.217 2.747-2.719 2.747h-1.36c0 .758-.608 1.373-1.36 1.373H15.64c-.751 0-1.36-.615-1.36-1.373h-1.36c-1.502 0-2.72-1.23-2.72-2.748v-6.729c-.855-.432-1.359-.952-1.359-1.513h-.126a13.758 13.758 0 00-3.973-7.815A15.08 15.08 0 012 17.144C2 8.777 8.715 1.992 17 1.992c8.284 0 15 6.785 15 15.152a15.08 15.08 0 01-2.743 8.67zM14.28 41.87h5.44c.75 0 1.359-.615 1.359-1.374v-.472l-6.812 1.844.013.002zm-1.36-1.669l8.159-2.207V36.59l-8.159 2.208v1.404zm0-3.432L19.448 35H14.28c-.75 0-1.36.62-1.36 1.376v.394zM17 4.928c-6.703 0-12.137 5.487-12.137 12.259 0 3.5 1.465 6.639 3.793 8.87a11.455 11.455 0 01-.662-.671h-.128a16.39 16.39 0 012.927 5.543c.275.126.56.23.843.34.057.177.139.342.254.48-.224.158-.363.33-.363.507 0 .797 2.45 1.444 5.473 1.444 3.022 0 5.472-.647 5.472-1.444 0-.178-.139-.349-.363-.506.116-.139.197-.304.255-.48.283-.11.568-.215.842-.34a16.388 16.388 0 012.927-5.544h-.128c-.21.236-.435.455-.662.671a12.244 12.244 0 003.793-8.87c0-6.772-5.433-12.259-12.136-12.259zm6.822 12.216c-.007-3.802-3.053-6.883-6.816-6.898V8.75c4.58.018 8.288 3.768 8.295 8.395h-1.48z"/></svg>