<svg version="1.1" id="Слой_1" xmlns="http://www.w3.org/2000/svg" x="0" y="0" viewBox="0 0 390 390" xml:space="preserve"><style>.st2{fill:#fff}</style><circle cx="195" cy="195" r="195" fill="#168ae3"/><path d="M135 294l16.18-22 28-151.76L284 96l106 94.18c.29 16.34-.68 74.06-43 126.82-36.16 45.09-81.82 60.74-98.79 65.65C207.65 353.05 175.56 323.6 135 294z" fill="#1564a2"/><path class="st2" d="M134.54 293.84V272h16.64V117.72h-24.64V96.16h157.92v46.76H266.1v-22.68h-86.92v65.52h68.32v22.96h-68.32V272h47.88v21.84h-92.52z"/><path class="st2" d="M234.82 166h12.68v20.76h-12.68zm0 42.12h12.68V227h-12.68zm-108.28-90.4c1.34-.08 11.16-.52 18.46 7.28 6.7 7.15 6.3 15.9 6.21 17.39v-24.67h-24.67zM267 142.92c-1.36-2.27-.68-9.6-7-15.92-5.81-5.81-13.41-6.45-16-7h23v22.92z"/><path class="st2" d="M234.82 166c.09 1.19.49 8.22-4.82 14-5.93 6.45-14.07 6-15.1 5.92h19.92V166zm0 61c.05-1.13.26-7.67-4.82-13-5.42-5.68-12.53-5.46-13.59-5.41h18.46l-.05 18.41z"/></svg>