<svg xmlns="http://www.w3.org/2000/svg" width="36" height="36"><path fill-rule="evenodd" fill="#fff" d="M33.51 32.095l-1.414 1.414a1.999 1.999 0 01-2.828 0l-5.39-5.389L20 32c-.75.75-2 .104-2-1V20a2 2 0 012-2.001h11c1.104 0 1.75 1.25 1 2l-3.879 3.88 5.39 5.388a2 2 0 010 2.828zm-1.914-1.914l-6.389-6.39L28 21c.5-.5.052-1-.5-1H21a1 1 0 00-1 1v6.5c0 .552.448 1.052 1 .5l2.793-2.792 6.389 6.388a1 1 0 101.414-1.414zM16 17.999H5c-1.105 0-1.75-1.25-1-2l3.879-3.878-5.39-5.39a2 2 0 010-2.828L3.904 2.49a2 2 0 012.828 0l5.39 5.39L16 3.998c.75-.75 2-.104 2 1v11a2 2 0 01-2 2zm0-9.5c0-.551-.448-1.052-1-.5l-2.793 2.793-6.39-6.389a1 1 0 00-1.413 1.414l6.389 6.39L8 14.998c-.5.5-.052 1 .5 1H15a1 1 0 001-1v-6.5z"/></svg>