<svg version="1.2" baseProfile="tiny" xmlns="http://www.w3.org/2000/svg" viewBox="0 0 90 90" overflow="visible"><path fill="#D07C3F" d="M4.88 0H85v17.24H4.88z"/><path fill="#EEC65D" d="M83.41 90H6.59A6.59 6.59 0 010 83.41V17.24h90v66.18c0 3.63-2.95 6.58-6.59 6.58zM12.43 6.03l-7.58-6 .03 12.85z"/><path fill="#DCA34F" d="M0 17.25L12.43 6.03v11.22zm90 0L77.57 6.03v11.22z"/><path fill="#EEC65D" d="M77.57 6.02L85.15.03l-.12 12.76z"/><circle fill="#CF7839" cx="20.01" cy="37.04" r="4.01"/><circle fill="#CF7839" cx="66.9" cy="37.04" r="4.01"/><path fill="none" stroke="#FFF" stroke-width="3" stroke-linecap="round" d="M20.1 37.71c.05 13.55 10.71 24.34 23.43 23.91 13.05-.44 23.61-10.82 23.43-24.13"/></svg>