<svg xmlns="http://www.w3.org/2000/svg" baseProfile="tiny" viewBox="0 0 104.09 104.09" overflow="visible"><path fill="#efefef" d="M99.79 104.09H4.29A4.29 4.29 0 010 99.8V4.29A4.29 4.29 0 014.29 0h95.5a4.29 4.29 0 014.29 4.29v95.5c.01 2.38-1.91 4.3-4.29 4.3z"/><path fill="#2b414d" d="M94.82 98H9c-1.65 0-3-1.35-3-3V22.29c0-1.65 1.35-3 3-3h85.82c1.65 0 3 1.35 3 3V95c0 1.65-1.35 3-3 3z"/><g fill="#bfc3c5"><circle cx="9.44" cy="9.44" r="3.44"/><circle cx="19.15" cy="9.44" r="3.44"/><circle cx="29.09" cy="9.44" r="3.44"/></g><path fill="#e4e7e7" d="M68.57 38.88H23.4a2.44 2.44 0 01-2.43-2.43 2.44 2.44 0 012.43-2.43h45.18a2.44 2.44 0 012.43 2.43 2.448 2.448 0 01-2.44 2.43z"/><path fill="#ee6053" d="M40.9 49.9h-18a1.94 1.94 0 010-3.88h18a1.94 1.94 0 010 3.88z"/><path fill="#4bbfa9" d="M60.37 62H23.49c-1.38 0-2.51-1.13-2.51-2.51s1.13-2.51 2.51-2.51h36.88c1.38 0 2.51 1.13 2.51 2.51S61.75 62 60.37 62z"/><path fill="#26a9d5" d="M80.97 49.9H52.9a1.94 1.94 0 010-3.88h28.06a1.94 1.94 0 110 3.88zm-.53 35.12h-57c-1.36 0-2.47-1.1-2.47-2.47s1.1-2.47 2.47-2.47h57c1.36 0 2.47 1.1 2.47 2.47s-1.1 2.47-2.47 2.47z"/><path fill="#ee6053" d="M35.97 72.94H22.9a1.94 1.94 0 010-3.88h13.06a1.94 1.94 0 010 3.88z"/><path fill="#4bbfa9" d="M61 72.94H47.93a1.94 1.94 0 010-3.88H61A1.94 1.94 0 0162.93 71a1.95 1.95 0 01-1.94 1.94z"/><path fill="#ee6053" d="M80.1 72.94h-7.15a1.94 1.94 0 010-3.88h7.15a1.94 1.94 0 110 3.88z"/></svg>